<svg width="17" height="30" viewBox="0 0 17 30" fill="none" xmlns="http://www.w3.org/2000/svg">
<path d="M13.7285 12.7275C12.6239 12.7275 11.7285 13.623 11.7285 14.7275C11.7285 15.8321 12.6239 16.7275 13.7285 16.7275L13.7285 14.7275L13.7285 12.7275ZM16.1427 16.1418C16.9238 15.3607 16.9238 14.0944 16.1427 13.3133L3.41481 0.585401C2.63376 -0.195648 1.36743 -0.195649 0.586386 0.5854C-0.194663 1.36645 -0.194664 2.63278 0.586385 3.41383L11.9001 14.7275L0.586377 26.0412C-0.194672 26.8223 -0.194672 28.0886 0.586376 28.8697C1.36742 29.6507 2.63375 29.6507 3.4148 28.8697L16.1427 16.1418ZM13.7285 14.7275L13.7285 16.7275L14.7285 16.7275L14.7285 14.7275L14.7285 12.7275L13.7285 12.7275L13.7285 14.7275Z" fill="white"/>
</svg>
