<svg width="23" height="23" viewBox="0 0 23 23" fill="none" xmlns="http://www.w3.org/2000/svg">
<g clip-path="url(#clip0_2393_35061)">
<path d="M11.5048 0C5.15897 0 0 5.15583 0 11.5C0 17.8442 5.15897 23 11.5048 23C17.8506 23 23.0096 17.8442 23.0096 11.5C23.0096 5.15583 17.841 0 11.5048 0ZM19.0662 5.42417C20.3774 7.05333 21.1719 9.10417 21.2102 11.3467C20.7699 11.2604 18.9226 10.9154 16.7116 10.9154C16.0033 10.9154 15.2472 10.9538 14.5006 11.04C14.4336 10.8867 14.3762 10.7333 14.3092 10.58C14.1178 10.12 13.9072 9.66958 13.6871 9.21917C17.0849 7.82 18.7312 5.87458 19.0662 5.43375V5.42417ZM11.5048 1.80167C13.9551 1.80167 16.1948 2.71208 17.908 4.21667C17.64 4.59042 16.166 6.42083 12.8926 7.66667C11.3708 4.8875 9.71494 2.5875 9.32251 2.05083C10.0308 1.88792 10.7582 1.80167 11.5144 1.80167H11.5048ZM7.3221 2.74083C7.6571 3.20083 9.32251 5.52958 10.8731 8.28C6.69996 9.38208 2.98627 9.44917 2.08656 9.44917H1.99084C2.63213 6.47833 4.63254 4.01542 7.31253 2.74083H7.3221ZM1.78027 11.5192C1.78027 11.4425 1.78027 11.3562 1.78027 11.2796C1.8377 11.2796 1.92385 11.2796 2.0387 11.2796C3.24469 11.2796 7.42738 11.1838 11.7441 9.89958C12.0025 10.4075 12.2514 10.9346 12.4906 11.4521C12.3854 11.4808 12.2705 11.5192 12.1652 11.5479C7.31253 13.1196 4.64211 17.2787 4.23055 17.9592C2.7087 16.2437 1.78027 13.9917 1.78027 11.5192ZM11.5048 21.2271C9.27466 21.2271 7.21681 20.47 5.58011 19.205C5.85768 18.6588 7.86767 15.0267 13.1893 13.1771C13.1893 13.1771 13.1893 13.1771 13.1989 13.1771C14.5293 16.6558 15.094 19.5788 15.2568 20.4796C14.0986 20.9683 12.8352 21.2367 11.5048 21.2367V21.2271ZM16.9988 19.5212C16.8648 18.7738 16.3479 16.0329 15.1323 12.6979C15.8119 12.5925 16.4723 12.5542 17.0849 12.5542C19.114 12.5542 20.7029 12.995 21.0762 13.11C20.6359 15.755 19.1236 18.055 16.9988 19.5212Z" fill="#FAF8F6"/>
</g>
<defs>
<clipPath id="clip0_2393_35061">
<rect width="23" height="23" fill="white"/>
</clipPath>
</defs>
</svg>
