<svg width="393" height="99" viewBox="0 0 393 99" fill="none" xmlns="http://www.w3.org/2000/svg">
<path d="M391.871 47.4928C392.581 48.9126 392.155 49.6935 390.097 49.6935C388.251 49.6935 379.662 49.6935 379.662 49.6935C378.384 49.6935 377.604 49.1256 376.965 47.9187C376.61 47.3508 373.628 41.6716 371.073 36.9152L367.808 36.9152L367.808 47.9187C367.808 48.9126 367.027 49.6935 366.033 49.6935L355.599 49.6935C354.676 49.6935 353.824 48.9126 353.824 47.9187L353.824 1.77486C353.824 0.851979 354.605 9.15527e-05 355.599 9.15527e-05L366.033 9.15528e-05C367.027 9.15528e-05 367.808 0.851979 367.808 1.77486L367.808 24.7048L371.002 24.7048C373.274 20.0194 375.971 14.3402 376.255 13.7723C376.965 12.4944 377.675 11.9975 378.952 11.9975C378.952 11.9975 387.612 11.9975 389.458 11.9975C391.516 11.9975 391.942 12.8494 391.161 14.1982C390.593 15.3341 384.205 28.3963 382.856 30.81C384.276 33.2237 391.303 46.3569 391.871 47.4928Z" fill="white"/>
<path d="M348.764 11.8557C349.616 12.2816 349.545 13.4174 349.474 14.4113C349.332 15.6891 348.693 22.7882 348.551 23.9241C348.338 25.5568 347.345 26.3377 345.925 25.9118C344.434 25.4149 341.95 24.7049 339.182 24.7759C336.555 24.8469 332.367 25.9828 332.367 32.017C332.367 33.9337 332.367 47.9898 332.367 47.9898L332.296 48.0608L332.296 47.9898C332.296 48.9127 331.515 49.6936 330.593 49.6936L320.087 49.6936C319.164 49.6936 318.313 48.9127 318.313 47.9898L318.313 13.7724C318.313 12.7785 319.164 11.9976 320.087 11.9976L330.593 11.9976C331.515 11.9976 332.296 12.7785 332.296 13.7724L332.296 15.5472C333.503 13.8434 338.259 11.0038 343.157 11.0038C345.925 11.0038 347.841 11.5007 348.764 11.8557Z" fill="white"/>
<path d="M312.57 23.2851C312.641 23.8531 312.641 24.421 312.641 24.9889L312.641 47.9189C312.641 48.9127 311.86 49.6936 310.866 49.6936L304.691 49.6936L300.432 49.6936C299.438 49.6936 298.657 48.9127 298.657 47.9189L298.657 46.499C296.102 49.2677 291.133 50.5455 287.158 50.5455C284.958 50.5455 275.801 49.4097 275.801 39.8969C275.801 31.733 281.692 27.8285 287.158 26.9766C290.707 26.4797 295.747 26.2667 298.657 26.1248C298.586 23.995 297.806 21.3684 293.192 21.3684C288.933 21.3684 284.887 22.9302 282.828 23.7821C282.047 24.066 281.337 23.7821 281.054 23.1432C280.699 22.4333 278.64 17.3219 278.427 16.754C278.214 16.1861 278.214 15.1922 279.066 14.8373C281.479 13.5594 287.442 11.0038 294.824 11.0038C303.2 11.0038 311.576 14.5533 312.57 23.2851ZM293.83 41.0328C298.302 41.0328 298.657 37.3413 298.657 37.3413L298.657 33.0108C298.657 33.0108 293.263 32.7269 291.133 34.4307C288.436 36.4894 289.288 41.0328 293.83 41.0328Z" fill="white"/>
<path d="M269.07 9.1553e-05C269.993 9.1553e-05 270.845 0.851979 270.845 1.77486L270.845 47.9187C270.845 48.9126 269.993 49.6935 269.07 49.6935L257.926 49.6935C257.003 49.6935 256.151 48.9126 256.151 47.9187L256.151 25.9826C256.151 25.9826 249.124 36.1343 247.988 37.8381C246.64 39.8968 245.859 39.6838 245.291 39.6838C244.652 39.6838 241.245 39.6838 240.677 39.6838C240.109 39.6838 239.328 39.8968 237.98 37.8381C236.773 36.1343 229.746 25.9826 229.746 25.9826L229.746 47.9187C229.746 48.9126 228.965 49.6935 227.971 49.6935L216.898 49.6935C215.904 49.6935 215.123 48.9126 215.123 47.9187L215.123 1.77486C215.123 0.851979 215.904 9.15527e-05 216.898 9.15527e-05L225.274 9.15528e-05C226.48 9.15528e-05 227.048 0.426037 227.9 1.49089C228.681 2.55575 242.948 22.2201 242.948 22.2201C242.948 22.2201 257.287 2.55575 258.068 1.49089C258.92 0.426037 259.487 9.15529e-05 260.694 9.15529e-05L269.07 9.1553e-05Z" fill="white"/>
<path d="M173.831 49.6935C172.837 49.6935 172.057 48.9126 172.057 47.9187L172.057 1.77486C172.057 0.78099 172.837 9.15527e-05 173.831 9.15527e-05L184.266 9.15528e-05C185.259 9.15528e-05 186.04 0.78099 186.04 1.77486L186.04 14.2692C187.318 12.9914 191.293 11.0036 195.552 11.0036C204.993 11.0036 210.175 15.902 210.175 24.6338L210.175 47.9187C210.175 48.9126 209.394 49.6935 208.4 49.6935L197.965 49.6935C196.972 49.6935 196.191 48.9126 196.191 47.9187L196.191 27.0475C196.191 23.143 192.997 22.0782 191.08 22.0782C189.164 22.0782 186.04 23.072 186.04 27.0475C186.04 28.9642 186.04 47.9187 186.04 47.9187C186.04 48.9126 185.259 49.6935 184.266 49.6935L173.831 49.6935Z" fill="white"/>
<path d="M148.329 38.8321C150.813 38.8321 152.588 37.6252 154.007 35.7085C154.504 35.0696 154.788 34.9276 156.279 34.9276C156.988 34.9276 163.59 34.9276 165.01 34.9276C166.784 34.9276 167.281 35.3535 166.713 37.3413C164.584 44.8663 157.343 50.5455 148.329 50.5455C137.184 50.5455 127.814 41.6717 127.814 30.7391C127.814 19.8066 137.184 11.0038 148.329 11.0038C157.13 11.0038 164.371 16.896 166.784 24.35C167.423 26.2667 166.855 26.8347 165.293 26.8347C164.016 26.8347 157.059 26.8347 155.924 26.8347C154.859 26.8347 154.575 26.5507 154.078 25.9118C152.588 23.8531 150.884 22.6462 148.329 22.6462C143.999 22.6462 140.52 26.2667 140.52 30.7391C140.52 35.2115 143.999 38.8321 148.329 38.8321Z" fill="white"/>
<path d="M87.9074 49.6936C86.9136 49.6936 86.1328 48.9127 86.1328 47.9898L86.1328 13.7724C86.1328 12.7785 86.9136 11.9976 87.9074 11.9976L98.3419 11.9976C99.3357 11.9976 100.116 12.7785 100.116 13.7724L100.116 15.5472C101.678 13.2755 106.718 11.0038 110.977 11.0038C120.418 11.0038 124.251 15.9021 124.251 24.634L124.251 47.9898C124.251 48.9127 123.47 49.6936 122.476 49.6936L112.042 49.6936C111.048 49.6936 110.267 48.9127 110.267 47.9898L110.267 27.0476C110.267 23.1432 107.073 22.0783 105.227 22.0783C103.24 22.0783 100.116 23.0722 100.116 27.0476C100.116 28.9644 100.116 47.9898 100.116 47.9898C100.116 48.9127 99.3357 49.6936 98.3419 49.6936L87.9074 49.6936Z" fill="white"/>
<path d="M77.685 35.1406C76.1234 35.1406 70.6577 35.1406 58.0227 35.1406C59.4424 39.4 63.5594 40.6068 66.2568 40.6778C70.5867 40.8198 73.1421 39.9679 75.6975 38.8321C76.6203 38.4771 77.614 38.4771 78.1819 39.542C78.4658 40.2519 79.8145 43.9434 80.1694 44.7953C80.5953 45.9311 80.0984 46.712 79.4596 47.138C75.3426 49.6936 69.593 50.5455 64.6951 50.5455C51.4213 50.5455 44.0391 41.6717 44.0391 30.7391C44.0391 19.8066 51.3503 11.0038 64.1273 11.0038C75.2716 11.0038 81.873 19.8066 81.873 30.7391C81.873 33.9337 81.5181 35.1406 77.685 35.1406ZM64.1273 20.8005C60.2232 20.8005 57.7388 23.6401 57.7388 28.0415L69.1671 28.0415C69.1671 23.7111 67.4635 20.8005 64.1273 20.8005Z" fill="white"/>
<path d="M29.174 23.7109L29.174 23.9239C35.5625 24.1369 39.7505 29.6741 39.7505 34.7145C39.7505 44.0852 32.5102 49.6935 21.7918 49.6935C21.6498 49.6935 1.77458 49.6935 1.77458 49.6935C0.780814 49.6935 2.12176e-10 48.9126 2.07864e-10 47.9187L0 1.77486C0 0.78099 0.780814 9.15527e-05 1.77458 9.15527e-05C1.77458 9.15527e-05 18.3136 9.15528e-05 18.4556 9.15528e-05C29.174 9.15529e-05 36.9112 3.26566 36.9112 13.3463C36.9112 17.1798 33.575 22.2201 29.174 23.7109ZM23.1405 15.618C23.1405 13.4173 21.011 11.9975 17.5328 11.9975C17.1069 11.9975 16.0422 11.9975 14.6225 11.9975L14.6225 19.8065C15.6873 19.8065 16.752 19.8065 17.7458 19.8065C21.8628 19.8065 23.1405 17.6767 23.1405 15.618ZM20.727 37.9091C23.7793 37.9091 25.5539 36.0633 25.5539 33.9336C25.5539 31.7329 23.7793 30.0291 20.798 30.0291C20.1592 30.0291 17.5328 30.0291 14.6225 30.0291L14.6225 37.9091C17.3199 37.9091 19.7333 37.9091 20.727 37.9091Z" fill="white"/>
<path d="M195.734 90.7213C194.749 90.9269 193.775 91.0081 192.812 90.9648C191.859 90.9215 191.004 90.7158 190.247 90.3479C189.5 89.9799 188.932 89.4063 188.542 88.627C188.228 87.9777 188.055 87.3229 188.023 86.6627C188.001 85.9917 187.99 85.2287 187.99 84.3737V68.318H190.36V84.2762C190.36 85.0122 190.366 85.6291 190.377 86.127C190.398 86.614 190.512 87.0469 190.718 87.4257C191.107 88.1508 191.724 88.5837 192.568 88.7244C193.423 88.8651 194.478 88.8327 195.734 88.627V90.7213ZM184.24 75.2338V73.1882H195.734V75.2338H184.24Z" fill="white"/>
<path d="M179.573 90.722V81.7769C179.573 80.8028 179.481 79.9099 179.297 79.0982C179.113 78.2757 178.816 77.5614 178.404 76.9553C178.004 76.3384 177.479 75.8622 176.83 75.5267C176.191 75.1912 175.412 75.0234 174.492 75.0234C173.648 75.0234 172.901 75.1695 172.252 75.4618C171.613 75.754 171.072 76.1761 170.628 76.728C170.195 77.2692 169.865 77.9294 169.638 78.7086C169.411 79.4879 169.297 80.3753 169.297 81.371L167.609 80.9976C167.609 79.2011 167.923 77.6913 168.55 76.4683C169.178 75.2453 170.044 74.3199 171.148 73.6922C172.252 73.0645 173.518 72.7506 174.947 72.7506C175.996 72.7506 176.911 72.913 177.69 73.2377C178.48 73.5624 179.146 74.0007 179.687 74.5526C180.239 75.1046 180.683 75.7377 181.018 76.452C181.354 77.1555 181.597 77.9077 181.749 78.7086C181.9 79.4987 181.976 80.2887 181.976 81.0788V90.722H179.573ZM166.895 90.722V73.189H169.054V77.5073H169.297V90.722H166.895Z" fill="white"/>
<path d="M155.813 91.2086C154.103 91.2086 152.62 90.8298 151.365 90.0722C150.12 89.3146 149.152 88.2486 148.459 86.8741C147.766 85.4996 147.42 83.887 147.42 82.0363C147.42 80.1206 147.761 78.4647 148.443 77.0686C149.124 75.6725 150.082 74.5956 151.316 73.838C152.561 73.0804 154.027 72.7016 155.715 72.7016C157.447 72.7016 158.924 73.102 160.147 73.9029C161.37 74.693 162.296 75.8294 162.923 77.3121C163.551 78.7948 163.838 80.5644 163.784 82.6207H161.349V81.7765C161.305 79.5037 160.813 77.7883 159.871 76.6303C158.941 75.4722 157.577 74.8932 155.78 74.8932C153.897 74.8932 152.452 75.5047 151.446 76.7277C150.45 77.9507 149.952 79.6931 149.952 81.9551C149.952 84.163 150.45 85.8784 151.446 87.1014C152.452 88.3135 153.876 88.9196 155.715 88.9196C156.971 88.9196 158.064 88.6328 158.995 88.0592C159.936 87.4748 160.678 86.636 161.219 85.5429L163.443 86.4033C162.75 87.9293 161.727 89.1144 160.375 89.9586C159.033 90.792 157.512 91.2086 155.813 91.2086ZM149.108 82.6207V80.6239H162.501V82.6207H149.108Z" fill="white"/>
<path d="M141.875 90.7214L141.891 79.2113C141.891 77.8585 141.512 76.7978 140.755 76.0294C140.008 75.2502 139.056 74.8606 137.898 74.8606C137.237 74.8606 136.593 75.0121 135.966 75.3151C135.338 75.6182 134.818 76.1052 134.407 76.7762C134.007 77.4472 133.807 78.3239 133.807 79.4062L132.394 79.0003C132.362 77.7448 132.605 76.6463 133.125 75.7047C133.655 74.7632 134.38 74.0326 135.3 73.5131C136.231 72.9828 137.281 72.7176 138.449 72.7176C140.214 72.7176 141.626 73.2642 142.687 74.3573C143.747 75.4396 144.278 76.9061 144.278 78.7568L144.261 90.7214H141.875ZM120.949 90.7214V73.1884H123.092V77.5067H123.352V90.7214H120.949ZM131.436 90.7214L131.453 79.3737C131.453 77.9775 131.079 76.879 130.332 76.0781C129.597 75.2664 128.623 74.8606 127.41 74.8606C126.198 74.8606 125.219 75.2772 124.472 76.1106C123.725 76.9331 123.352 78.0317 123.352 79.4062L121.923 78.6269C121.923 77.5013 122.188 76.4948 122.719 75.6073C123.249 74.709 123.974 74.0056 124.894 73.4969C125.814 72.9774 126.858 72.7176 128.027 72.7176C129.142 72.7176 130.132 72.9557 130.998 73.4319C131.875 73.9081 132.562 74.6008 133.06 75.5099C133.558 76.419 133.807 77.523 133.807 78.8217L133.79 90.7214H131.436Z" fill="white"/>
<path d="M109.868 91.2086C108.158 91.2086 106.675 90.8298 105.419 90.0722C104.175 89.3146 103.206 88.2486 102.514 86.8741C101.821 85.4996 101.475 83.887 101.475 82.0363C101.475 80.1206 101.816 78.4647 102.497 77.0686C103.179 75.6725 104.137 74.5956 105.371 73.838C106.615 73.0804 108.082 72.7016 109.77 72.7016C111.502 72.7016 112.979 73.102 114.202 73.9029C115.425 74.693 116.35 75.8294 116.978 77.3121C117.606 78.7948 117.893 80.5644 117.839 82.6207H115.403V81.7765C115.36 79.5037 114.868 77.7883 113.926 76.6303C112.995 75.4722 111.632 74.8932 109.835 74.8932C107.952 74.8932 106.507 75.5047 105.501 76.7277C104.505 77.9507 104.007 79.6931 104.007 81.9551C104.007 84.163 104.505 85.8784 105.501 87.1014C106.507 88.3135 107.93 88.9196 109.77 88.9196C111.026 88.9196 112.119 88.6328 113.049 88.0592C113.991 87.4748 114.732 86.636 115.274 85.5429L117.498 86.4033C116.805 87.9293 115.782 89.1144 114.429 89.9586C113.087 90.792 111.567 91.2086 109.868 91.2086ZM103.163 82.6207V80.6239H116.556V82.6207H103.163Z" fill="white"/>
<path d="M90.1982 99.0011C89.2999 99.0011 88.4125 98.8658 87.5358 98.5952C86.67 98.3355 85.8691 97.9188 85.1332 97.3452C84.3972 96.7824 83.7803 96.0465 83.2825 95.1373L85.4416 93.936C85.9287 94.9101 86.6105 95.6081 87.4871 96.0302C88.3746 96.4631 89.2783 96.6796 90.1982 96.6796C91.4645 96.6796 92.4872 96.4415 93.2664 95.9653C94.0565 95.4999 94.6301 94.8072 94.9872 93.8873C95.3444 92.9674 95.5176 91.8201 95.5067 90.4456V85.7702H95.7827V73.1886H97.9094V90.4781C97.9094 90.976 97.8931 91.4522 97.8607 91.9067C97.839 92.3721 97.7903 92.8267 97.7146 93.2704C97.5089 94.58 97.0814 95.6568 96.4321 96.501C95.7935 97.3452 94.9494 97.9729 93.8996 98.3842C92.8606 98.7955 91.6268 99.0011 90.1982 99.0011ZM90.0359 91.2086C88.4016 91.2086 87.0055 90.8028 85.8475 89.9911C84.6895 89.1685 83.802 88.0592 83.1851 86.663C82.5682 85.2669 82.2598 83.6922 82.2598 81.9389C82.2598 80.1964 82.5628 78.6271 83.1689 77.2309C83.7858 75.8348 84.6678 74.7309 85.815 73.9191C86.9622 73.1074 88.3367 72.7016 89.9385 72.7016C91.5835 72.7016 92.9688 73.102 94.0944 73.9029C95.2199 74.7038 96.0695 75.8023 96.6431 77.1985C97.2275 78.5838 97.5197 80.1639 97.5197 81.9389C97.5197 83.6814 97.2329 85.2561 96.6593 86.663C96.0857 88.0592 95.2416 89.1685 94.1268 89.9911C93.0121 90.8028 91.6484 91.2086 90.0359 91.2086ZM90.2794 88.9845C91.524 88.9845 92.5521 88.6815 93.3638 88.0754C94.1755 87.4694 94.7816 86.636 95.1821 85.5754C95.5825 84.5039 95.7827 83.2917 95.7827 81.9389C95.7827 80.5644 95.5825 79.3522 95.1821 78.3024C94.7816 77.2418 94.1755 76.4138 93.3638 75.8186C92.563 75.2233 91.551 74.9257 90.3281 74.9257C89.0726 74.9257 88.0337 75.2341 87.2111 75.851C86.3886 76.4679 85.7771 77.3067 85.3767 78.3673C84.9871 79.428 84.7923 80.6185 84.7923 81.9389C84.7923 83.2701 84.9925 84.4714 85.3929 85.5429C85.8042 86.6035 86.4157 87.4423 87.2274 88.0592C88.0391 88.6761 89.0564 88.9845 90.2794 88.9845Z" fill="white"/>
<path d="M70.2111 91.2086C68.8907 91.2086 67.7814 90.9705 66.8831 90.4943C65.9956 90.0181 65.33 89.385 64.8863 88.5949C64.4426 87.8049 64.2207 86.9444 64.2207 86.0137C64.2207 85.0613 64.4101 84.2496 64.7889 83.5785C65.1785 82.8967 65.7034 82.3393 66.3636 81.9064C67.0346 81.4735 67.8084 81.1434 68.6851 80.9161C69.5725 80.6997 70.552 80.5103 71.6234 80.3479C72.7057 80.1748 73.7609 80.0286 74.7891 79.9096C75.828 79.7797 76.7371 79.6553 77.5164 79.5362L76.6722 80.0557C76.7047 78.324 76.3692 77.0415 75.6657 76.2082C74.9622 75.3748 73.7393 74.9581 71.9968 74.9581C70.7955 74.9581 69.7781 75.2287 68.9448 75.7699C68.1223 76.311 67.5433 77.166 67.2078 78.3349L64.8863 77.653C65.2867 76.0837 66.093 74.8661 67.3052 74.0003C68.5173 73.1345 70.092 72.7016 72.0293 72.7016C73.631 72.7016 74.9893 73.0046 76.104 73.6107C77.2296 74.206 78.025 75.0718 78.4904 76.2082C78.7069 76.7169 78.8476 77.2851 78.9125 77.9128C78.9774 78.5405 79.0099 79.1791 79.0099 79.8284V90.7216H76.8832V86.3221L77.5001 86.5819C76.9049 88.0863 75.9795 89.2335 74.7241 90.0235C73.4687 90.8136 71.9643 91.2086 70.2111 91.2086ZM70.487 89.1469C71.6018 89.1469 72.5758 88.9467 73.4092 88.5462C74.2425 88.1458 74.9135 87.5992 75.4222 86.9066C75.9308 86.2031 76.2609 85.413 76.4125 84.5364C76.5423 83.9736 76.6127 83.3567 76.6235 82.6857C76.6343 82.0038 76.6397 81.4951 76.6397 81.1596L77.5488 81.6304C76.7371 81.7387 75.8551 81.8469 74.9027 81.9551C73.9611 82.0633 73.0304 82.1878 72.1104 82.3285C71.2013 82.4692 70.3788 82.637 69.6429 82.8318C69.145 82.9725 68.6634 83.1727 68.198 83.4324C67.7327 83.6814 67.3485 84.0169 67.0454 84.439C66.7532 84.861 66.6071 85.386 66.6071 86.0137C66.6071 86.5224 66.7316 87.0148 66.9805 87.491C67.2402 87.9672 67.6515 88.3622 68.2143 88.6761C68.7879 88.99 69.5455 89.1469 70.487 89.1469Z" fill="white"/>
<path d="M58.5772 90.722V81.7769C58.5772 80.8028 58.4852 79.9099 58.3012 79.0982C58.1172 78.2757 57.8196 77.5614 57.4084 76.9553C57.0079 76.3384 56.483 75.8622 55.8337 75.5267C55.1951 75.1912 54.4159 75.0234 53.496 75.0234C52.6518 75.0234 51.905 75.1695 51.2557 75.4618C50.6171 75.754 50.076 76.1761 49.6323 76.728C49.1994 77.2692 48.8693 77.9294 48.642 78.7086C48.4147 79.4879 48.3011 80.3753 48.3011 81.371L46.6127 80.9976C46.6127 79.2011 46.9266 77.6913 47.5543 76.4683C48.182 75.2453 49.0478 74.3199 50.1518 73.6922C51.2557 73.0645 52.5219 72.7506 53.9505 72.7506C55.0003 72.7506 55.9148 72.913 56.6941 73.2377C57.4841 73.5624 58.1497 74.0007 58.6908 74.5526C59.2428 75.1046 59.6865 75.7377 60.022 76.452C60.3575 77.1555 60.601 77.9077 60.7526 78.7086C60.9041 79.4987 60.9798 80.2887 60.9798 81.0788V90.722H58.5772ZM45.8984 90.722V73.189H48.0576V77.5073H48.3011V90.722H45.8984Z" fill="white"/>
<path d="M32.8907 91.2086C31.5704 91.2086 30.4611 90.9705 29.5628 90.4943C28.6753 90.0181 28.0097 89.385 27.566 88.5949C27.1223 87.8049 26.9004 86.9444 26.9004 86.0137C26.9004 85.0613 27.0898 84.2496 27.4686 83.5785C27.8582 82.8967 28.3831 82.3393 29.0433 81.9064C29.7143 81.4735 30.4881 81.1434 31.3647 80.9161C32.2522 80.6997 33.2317 80.5103 34.3031 80.3479C35.3854 80.1748 36.4406 80.0286 37.4687 79.9096C38.5077 79.7797 39.4168 79.6553 40.1961 79.5362L39.3519 80.0557C39.3844 78.324 39.0489 77.0415 38.3454 76.2082C37.6419 75.3748 36.4189 74.9581 34.6765 74.9581C33.4752 74.9581 32.4578 75.2287 31.6245 75.7699C30.802 76.311 30.223 77.166 29.8875 78.3349L27.566 77.653C27.9664 76.0837 28.7727 74.8661 29.9849 74.0003C31.197 73.1345 32.7717 72.7016 34.709 72.7016C36.3107 72.7016 37.669 73.0046 38.7837 73.6107C39.9093 74.206 40.7047 75.0718 41.1701 76.2082C41.3866 76.7169 41.5272 77.2851 41.5922 77.9128C41.6571 78.5405 41.6896 79.1791 41.6896 79.8284V90.7216H39.5629V86.3221L40.1798 86.5819C39.5846 88.0863 38.6592 89.2335 37.4038 90.0235C36.1484 90.8136 34.644 91.2086 32.8907 91.2086ZM33.1667 89.1469C34.2815 89.1469 35.2555 88.9467 36.0888 88.5462C36.9222 88.1458 37.5932 87.5992 38.1019 86.9066C38.6105 86.2031 38.9406 85.413 39.0921 84.5364C39.222 83.9736 39.2924 83.3567 39.3032 82.6857C39.314 82.0038 39.3194 81.4951 39.3194 81.1596L40.2285 81.6304C39.4168 81.7387 38.5348 81.8469 37.5824 81.9551C36.6408 82.0633 35.7101 82.1878 34.7901 82.3285C33.881 82.4692 33.0585 82.637 32.3226 82.8318C31.8247 82.9725 31.3431 83.1727 30.8777 83.4324C30.4124 83.6814 30.0281 84.0169 29.7251 84.439C29.4329 84.861 29.2868 85.386 29.2868 86.0137C29.2868 86.5224 29.4113 87.0148 29.6602 87.491C29.9199 87.9672 30.3312 88.3622 30.894 88.6761C31.4676 88.99 32.2251 89.1469 33.1667 89.1469Z" fill="white"/>
<path d="M0.572266 90.7218V67.3445H2.76386L11.9523 87.0042L21.0921 67.3445H23.3161V90.7056H21.0434V72.6693L12.7153 90.7218H11.1731L2.86126 72.6693V90.7218H0.572266Z" fill="white"/>
</svg>
