<svg width="202" height="51" viewBox="0 0 202 51" fill="none" xmlns="http://www.w3.org/2000/svg">
<path d="M200.872 24.3443C201.236 25.0721 201.017 25.4724 199.962 25.4724C199.016 25.4724 194.613 25.4724 194.613 25.4724C193.959 25.4724 193.558 25.1812 193.231 24.5626C193.049 24.2715 191.521 21.3604 190.211 18.9223L188.537 18.9223L188.537 24.5626C188.537 25.0721 188.137 25.4724 187.627 25.4724L182.279 25.4724C181.806 25.4724 181.369 25.0721 181.369 24.5626L181.369 0.909728C181.369 0.436669 181.769 0 182.279 0L187.627 0C188.137 0 188.537 0.436669 188.537 0.909728L188.537 12.6634L190.174 12.6634C191.339 10.2617 192.721 7.35059 192.867 7.05948C193.231 6.40448 193.595 6.14975 194.25 6.14975C194.25 6.14975 198.689 6.14975 199.635 6.14975C200.69 6.14975 200.908 6.58642 200.508 7.27782C200.217 7.86004 196.942 14.5556 196.251 15.7929C196.979 17.0301 200.581 23.7621 200.872 24.3443Z" fill="#62764F"/>
<path d="M178.775 6.07729C179.212 6.29563 179.176 6.87785 179.139 7.3873C179.067 8.0423 178.739 11.6812 178.666 12.2634C178.557 13.1004 178.048 13.5007 177.32 13.2823C176.556 13.0276 175.282 12.6637 173.863 12.7001C172.517 12.7365 170.37 13.3187 170.37 16.4118C170.37 17.3943 170.37 24.5993 170.37 24.5993L170.334 24.6357L170.334 24.5993C170.334 25.0724 169.934 25.4727 169.461 25.4727L164.076 25.4727C163.603 25.4727 163.166 25.0724 163.166 24.5993L163.166 7.0598C163.166 6.55035 163.603 6.15007 164.076 6.15007L169.461 6.15007C169.934 6.15007 170.334 6.55035 170.334 7.0598L170.334 7.96953C170.953 7.09619 173.39 5.64063 175.901 5.64063C177.32 5.64063 178.302 5.89535 178.775 6.07729Z" fill="#62764F"/>
<path d="M160.221 11.9359C160.257 12.227 160.257 12.5182 160.257 12.8093L160.257 24.5629C160.257 25.0724 159.857 25.4727 159.348 25.4727L156.182 25.4727L153.999 25.4727C153.489 25.4727 153.089 25.0724 153.089 24.5629L153.089 23.8352C151.779 25.2543 149.232 25.9093 147.195 25.9093C146.067 25.9093 141.373 25.3271 141.373 20.451C141.373 16.2662 144.393 14.2648 147.195 13.8282C149.014 13.5734 151.597 13.4643 153.089 13.3915C153.053 12.2998 152.653 10.9534 150.288 10.9534C148.104 10.9534 146.03 11.754 144.975 12.1907C144.575 12.3362 144.211 12.1907 144.066 11.8632C143.884 11.4993 142.828 8.87925 142.719 8.58814C142.61 8.29703 142.61 7.78758 143.047 7.60564C144.284 6.95063 147.34 5.64063 151.124 5.64063C155.418 5.64063 159.711 7.46008 160.221 11.9359ZM150.615 21.0332C152.907 21.0332 153.089 19.141 153.089 19.141L153.089 16.9212C153.089 16.9212 150.324 16.7757 149.232 17.649C147.85 18.7043 148.286 21.0332 150.615 21.0332Z" fill="#62764F"/>
<path d="M137.925 1.19955e-10C138.398 1.22007e-10 138.834 0.436669 138.834 0.909728L138.834 24.5626C138.834 25.0721 138.398 25.4724 137.925 25.4724L132.212 25.4724C131.739 25.4724 131.302 25.0721 131.302 24.5626L131.302 13.3184C131.302 13.3184 127.7 18.522 127.118 19.3954C126.427 20.4507 126.026 20.3415 125.735 20.3415C125.408 20.3415 123.661 20.3415 123.37 20.3415C123.079 20.3415 122.679 20.4507 121.988 19.3954C121.369 18.522 117.767 13.3184 117.767 13.3184L117.767 24.5626C117.767 25.0721 117.367 25.4724 116.857 25.4724L111.181 25.4724C110.672 25.4724 110.271 25.0721 110.271 24.5626L110.271 0.909728C110.271 0.436669 110.672 0 111.181 0L115.475 0C116.093 0 116.384 0.218336 116.821 0.764171C117.221 1.31001 124.535 11.3898 124.535 11.3898C124.535 11.3898 131.885 1.31001 132.285 0.764171C132.721 0.218336 133.012 0 133.631 1.0133e-10L137.925 1.19955e-10Z" fill="#62764F"/>
<path d="M89.1049 25.4724C88.5955 25.4724 88.1953 25.0721 88.1953 24.5626L88.1953 0.909728C88.1953 0.400281 88.5955 0 89.1049 0L94.4536 0C94.963 0 95.3633 0.400281 95.3633 0.909728L95.3633 7.3142C96.0182 6.6592 98.0558 5.64031 100.239 5.64031C105.078 5.64031 107.734 8.15115 107.734 12.627L107.734 24.5626C107.734 25.0721 107.334 25.4724 106.825 25.4724L101.476 25.4724C100.967 25.4724 100.566 25.0721 100.566 24.5626L100.566 13.8642C100.566 11.8628 98.9291 11.317 97.9466 11.317C96.9642 11.317 95.3633 11.8264 95.3633 13.8642C95.3633 14.8467 95.3633 24.5626 95.3633 24.5626C95.3633 25.0721 94.963 25.4724 94.4536 25.4724L89.1049 25.4724Z" fill="#62764F"/>
<path d="M76.033 19.9051C77.3065 19.9051 78.2161 19.2865 78.9438 18.304C79.1985 17.9765 79.3441 17.9037 80.1082 17.9037C80.472 17.9037 83.8559 17.9037 84.5836 17.9037C85.4932 17.9037 85.7479 18.1221 85.4569 19.141C84.3653 22.9982 80.654 25.9093 76.033 25.9093C70.3205 25.9093 65.5176 21.3607 65.5176 15.7568C65.5176 10.1529 70.3205 5.64063 76.033 5.64063C80.5448 5.64063 84.2561 8.66092 85.4932 12.4818C85.8207 13.4643 85.5296 13.7554 84.7292 13.7554C84.0742 13.7554 80.5084 13.7554 79.9263 13.7554C79.3805 13.7554 79.2349 13.6098 78.9802 13.2823C78.2161 12.227 77.3429 11.6084 76.033 11.6084C73.8135 11.6084 72.0306 13.4643 72.0306 15.7568C72.0306 18.0493 73.8135 19.9051 76.033 19.9051Z" fill="#62764F"/>
<path d="M45.062 25.4727C44.5526 25.4727 44.1523 25.0724 44.1523 24.5993L44.1523 7.0598C44.1523 6.55035 44.5526 6.15007 45.062 6.15007L50.4107 6.15007C50.9201 6.15007 51.3203 6.55035 51.3203 7.0598L51.3203 7.96953C52.1208 6.80508 54.7042 5.64063 56.8873 5.64063C61.7266 5.64063 63.6914 8.15147 63.6914 12.6273L63.6914 24.5993C63.6914 25.0724 63.2911 25.4727 62.7817 25.4727L57.4331 25.4727C56.9237 25.4727 56.5234 25.0724 56.5234 24.5993L56.5234 13.8646C56.5234 11.8632 54.8861 11.3173 53.9401 11.3173C52.9213 11.3173 51.3203 11.8268 51.3203 13.8646C51.3203 14.8471 51.3203 24.5993 51.3203 24.5993C51.3203 25.0724 50.9201 25.4727 50.4107 25.4727L45.062 25.4727Z" fill="#62764F"/>
<path d="M39.821 18.0129C39.0205 18.0129 36.2188 18.0129 29.7422 18.0129C30.4699 20.1963 32.5802 20.8149 33.9629 20.8513C36.1824 20.924 37.4923 20.4874 38.8022 19.9051C39.2752 19.7232 39.7846 19.7232 40.0757 20.269C40.2212 20.6329 40.9125 22.5252 41.0945 22.9618C41.3128 23.544 41.0581 23.9443 40.7306 24.1627C38.6202 25.4727 35.673 25.9093 33.1624 25.9093C26.3583 25.9093 22.5742 21.3607 22.5742 15.7568C22.5742 10.1529 26.3219 5.64063 32.8713 5.64063C38.5839 5.64063 41.9677 10.1529 41.9677 15.7568C41.9677 17.3943 41.7858 18.0129 39.821 18.0129ZM32.8713 10.6623C30.8701 10.6623 29.5966 12.1179 29.5966 14.374L35.4547 14.374C35.4547 12.1543 34.5815 10.6623 32.8713 10.6623Z" fill="#62764F"/>
<path d="M14.9545 12.154L14.9545 12.2631C18.2292 12.3723 20.3759 15.2106 20.3759 17.7943C20.3759 22.5976 16.6646 25.4724 11.1704 25.4724C11.0976 25.4724 0.909639 25.4724 0.909639 25.4724C0.400241 25.4724 1.08759e-10 25.0721 1.06549e-10 24.5626L0 0.909728C0 0.400281 0.400241 0 0.909639 0C0.909639 0 9.38747 0 9.46024 0C14.9545 0 18.9205 1.6739 18.9205 6.84115C18.9205 8.80616 17.2104 11.3898 14.9545 12.154ZM11.8617 8.0056C11.8617 6.87753 10.7701 6.14975 8.98723 6.14975C8.76892 6.14975 8.22314 6.14975 7.49542 6.14975L7.49542 10.1526C8.04121 10.1526 8.58699 10.1526 9.09639 10.1526C11.2068 10.1526 11.8617 9.06088 11.8617 8.0056ZM10.6246 19.4318C12.1892 19.4318 13.0988 18.4856 13.0988 17.394C13.0988 16.2659 12.1892 15.3926 10.661 15.3926C10.3335 15.3926 8.98723 15.3926 7.49542 15.3926L7.49542 19.4318C8.87808 19.4318 10.1152 19.4318 10.6246 19.4318Z" fill="#62764F"/>
<path d="M100.333 46.5032C99.8282 46.6086 99.3289 46.6502 98.8352 46.6281C98.347 46.6059 97.9087 46.5005 97.5204 46.3118C97.1376 46.1232 96.8463 45.8292 96.6466 45.4298C96.4857 45.0969 96.397 44.7613 96.3803 44.4229C96.3692 44.0789 96.3637 43.6878 96.3637 43.2495V35.0195H97.5786V43.1996C97.5786 43.5768 97.5814 43.893 97.5869 44.1482C97.598 44.3979 97.6563 44.6198 97.7617 44.814C97.9614 45.1857 98.2776 45.4076 98.7103 45.4797C99.1486 45.5518 99.6895 45.5352 100.333 45.4298V46.5032ZM94.4414 38.5645V37.516H100.333V38.5645H94.4414Z" fill="#62764F"/>
<path d="M92.0499 46.5029V41.9178C92.0499 41.4185 92.0027 40.9608 91.9084 40.5447C91.8141 40.1231 91.6615 39.757 91.4507 39.4463C91.2454 39.1301 90.9764 38.886 90.6435 38.714C90.3162 38.542 89.9168 38.456 89.4452 38.456C89.0125 38.456 88.6297 38.5309 88.2969 38.6807C87.9696 38.8305 87.6922 39.0469 87.4647 39.3298C87.2428 39.6072 87.0736 39.9456 86.9571 40.345C86.8406 40.7444 86.7824 41.1994 86.7824 41.7097L85.9169 41.5184C85.9169 40.5974 86.0778 39.8235 86.3996 39.1966C86.7213 38.5698 87.1651 38.0954 87.731 37.7737C88.2969 37.4519 88.9459 37.291 89.6782 37.291C90.2164 37.291 90.6851 37.3742 91.0846 37.5407C91.4895 37.7071 91.8307 37.9318 92.1081 38.2147C92.391 38.4976 92.6185 38.8222 92.7905 39.1883C92.9624 39.5489 93.0873 39.9345 93.1649 40.345C93.2426 40.75 93.2814 41.155 93.2814 41.56V46.5029H92.0499ZM85.5508 46.5029V37.5157H86.6575V39.7292H86.7824V46.5029H85.5508Z" fill="#62764F"/>
<path d="M79.8706 46.7531C78.994 46.7531 78.234 46.559 77.5905 46.1706C76.9525 45.7823 76.456 45.2358 76.1009 44.5313C75.7459 43.8267 75.5684 43.0001 75.5684 42.0515C75.5684 41.0695 75.7431 40.2207 76.0926 39.5051C76.4421 38.7894 76.9331 38.2374 77.5655 37.8491C78.2035 37.4608 78.9552 37.2666 79.8206 37.2666C80.7083 37.2666 81.4655 37.4719 82.0924 37.8824C82.7193 38.2874 83.1936 38.8699 83.5154 39.6299C83.8371 40.3899 83.9841 41.297 83.9564 42.3511H82.7082V41.9183C82.686 40.7533 82.4336 39.874 81.9509 39.2804C81.4738 38.6868 80.7748 38.39 79.8539 38.39C78.8886 38.39 78.148 38.7035 77.6321 39.3303C77.1217 39.9572 76.8665 40.8504 76.8665 42.0099C76.8665 43.1416 77.1217 44.0209 77.6321 44.6478C78.148 45.2691 78.8775 45.5798 79.8206 45.5798C80.4642 45.5798 81.0245 45.4328 81.5016 45.1388C81.9842 44.8392 82.3642 44.4092 82.6416 43.8489L83.7817 44.29C83.4266 45.0722 82.9024 45.6797 82.2089 46.1124C81.521 46.5396 80.7415 46.7531 79.8706 46.7531ZM76.4338 42.3511V41.3275H83.299V42.3511H76.4338Z" fill="#62764F"/>
<path d="M72.7264 46.503L72.7347 40.603C72.7347 39.9096 72.5405 39.3659 72.1522 38.972C71.7694 38.5726 71.2812 38.3729 70.6876 38.3729C70.3492 38.3729 70.0191 38.4505 69.6974 38.6059C69.3756 38.7612 69.1093 39.0108 68.8985 39.3548C68.6932 39.6988 68.5906 40.1481 68.5906 40.7029L67.8666 40.4948C67.85 39.8513 67.9748 39.2882 68.2411 38.8056C68.5129 38.3229 68.8846 37.9485 69.3562 37.6822C69.8333 37.4103 70.3714 37.2744 70.9706 37.2744C71.8748 37.2744 72.5988 37.5546 73.1425 38.1149C73.6861 38.6697 73.958 39.4214 73.958 40.37L73.9496 46.503H72.7264ZM62 46.503V37.5157H63.0984V39.7293H63.2316V46.503H62ZM67.3757 46.503L67.384 40.6862C67.384 39.9706 67.1926 39.4075 66.8098 38.997C66.4326 38.5809 65.9333 38.3729 65.3119 38.3729C64.6906 38.3729 64.1885 38.5864 63.8058 39.0136C63.423 39.4352 63.2316 39.9983 63.2316 40.7029L62.4993 40.3034C62.4993 39.7265 62.6352 39.2106 62.907 38.7556C63.1789 38.2952 63.5506 37.9346 64.0221 37.6738C64.4937 37.4076 65.029 37.2744 65.6282 37.2744C66.1996 37.2744 66.7072 37.3965 67.151 37.6406C67.6004 37.8847 67.9526 38.2397 68.2078 38.7057C68.463 39.1717 68.5906 39.7376 68.5906 40.4033L68.5823 46.503H67.3757Z" fill="#62764F"/>
<path d="M56.3178 46.7531C55.4413 46.7531 54.6813 46.559 54.0377 46.1706C53.3998 45.7823 52.9032 45.2358 52.5482 44.5313C52.1931 43.8267 52.0156 43.0001 52.0156 42.0515C52.0156 41.0695 52.1904 40.2207 52.5399 39.5051C52.8894 38.7894 53.3803 38.2374 54.0128 37.8491C54.6508 37.4608 55.4025 37.2666 56.2679 37.2666C57.1555 37.2666 57.9128 37.4719 58.5397 37.8824C59.1665 38.2874 59.6409 38.8699 59.9626 39.6299C60.2844 40.3899 60.4314 41.297 60.4037 42.3511H59.1555V41.9183C59.1333 40.7533 58.8808 39.874 58.3982 39.2804C57.9211 38.6868 57.2221 38.39 56.3012 38.39C55.3359 38.39 54.5953 38.7035 54.0794 39.3303C53.569 39.9572 53.3138 40.8504 53.3138 42.0099C53.3138 43.1416 53.569 44.0209 54.0794 44.6478C54.5953 45.2691 55.3248 45.5798 56.2679 45.5798C56.9114 45.5798 57.4717 45.4328 57.9488 45.1388C58.4315 44.8392 58.8115 44.4092 59.0889 43.8489L60.2289 44.29C59.8739 45.0722 59.3496 45.6797 58.6562 46.1124C57.9683 46.5396 57.1888 46.7531 56.3178 46.7531ZM52.8811 42.3511V41.3275H59.7463V42.3511H52.8811Z" fill="#62764F"/>
<path d="M46.2352 50.7475C45.7748 50.7475 45.3199 50.6781 44.8705 50.5394C44.4267 50.4063 44.0162 50.1927 43.6389 49.8987C43.2617 49.6102 42.9455 49.233 42.6903 48.7669L43.797 48.1512C44.0467 48.6504 44.3962 49.0083 44.8455 49.2246C45.3004 49.4465 45.7637 49.5575 46.2352 49.5575C46.8843 49.5575 47.4086 49.4354 47.808 49.1913C48.213 48.9528 48.507 48.5977 48.6901 48.1262C48.8731 47.6546 48.9619 47.0666 48.9563 46.362V43.9654H49.0978V37.5162H50.1879V46.3787C50.1879 46.6339 50.1796 46.878 50.163 47.111C50.1519 47.3495 50.1269 47.5825 50.0881 47.81C49.9827 48.4812 49.7635 49.0332 49.4307 49.466C49.1034 49.8987 48.6706 50.2204 48.1325 50.4313C47.5999 50.6421 46.9675 50.7475 46.2352 50.7475ZM46.152 46.7531C45.3143 46.7531 44.5987 46.5451 44.0051 46.129C43.4115 45.7074 42.9566 45.1388 42.6403 44.4231C42.3241 43.7075 42.166 42.9003 42.166 42.0016C42.166 41.1084 42.3214 40.304 42.632 39.5883C42.9482 38.8727 43.4004 38.3068 43.9884 37.8907C44.5765 37.4746 45.281 37.2666 46.1021 37.2666C46.9453 37.2666 47.6554 37.4719 48.2324 37.8824C48.8093 38.2929 49.2448 38.856 49.5388 39.5717C49.8384 40.2818 49.9882 41.0917 49.9882 42.0016C49.9882 42.8947 49.8412 43.7019 49.5472 44.4231C49.2531 45.1388 48.8204 45.7074 48.249 46.129C47.6776 46.5451 46.9786 46.7531 46.152 46.7531ZM46.2768 45.6131C46.9148 45.6131 47.4418 45.4578 47.8579 45.1471C48.274 44.8364 48.5847 44.4092 48.7899 43.8656C48.9952 43.3164 49.0978 42.695 49.0978 42.0016C49.0978 41.297 48.9952 40.6757 48.7899 40.1375C48.5847 39.5939 48.274 39.1695 47.8579 38.8643C47.4474 38.5592 46.9287 38.4066 46.3018 38.4066C45.6583 38.4066 45.1257 38.5648 44.7041 38.881C44.2824 39.1972 43.969 39.6271 43.7637 40.1708C43.564 40.7145 43.4642 41.3247 43.4642 42.0016C43.4642 42.6839 43.5668 43.2997 43.7721 43.8489C43.9829 44.3926 44.2963 44.8225 44.7124 45.1388C45.1285 45.455 45.6499 45.6131 46.2768 45.6131Z" fill="#62764F"/>
<path d="M35.9905 46.7531C35.3137 46.7531 34.7451 46.6311 34.2846 46.387C33.8297 46.1429 33.4886 45.8184 33.2611 45.4134C33.0336 45.0084 32.9199 44.5674 32.9199 44.0903C32.9199 43.6021 33.017 43.186 33.2112 42.842C33.4109 42.4925 33.68 42.2068 34.0184 41.9849C34.3623 41.763 34.759 41.5938 35.2083 41.4773C35.6632 41.3663 36.1653 41.2693 36.7145 41.186C37.2693 41.0973 37.8102 41.0224 38.3372 40.9614C38.8698 40.8948 39.3358 40.831 39.7352 40.77L39.3025 41.0363C39.3191 40.1486 39.1472 39.4912 38.7866 39.0641C38.426 38.6369 37.7991 38.4233 36.9059 38.4233C36.2901 38.4233 35.7686 38.562 35.3415 38.8394C34.9198 39.1168 34.6231 39.555 34.4511 40.1542L33.2611 39.8047C33.4664 39.0003 33.8797 38.3761 34.501 37.9323C35.1223 37.4885 35.9295 37.2666 36.9226 37.2666C37.7436 37.2666 38.4398 37.4219 39.0112 37.7326C39.5882 38.0377 39.996 38.4815 40.2345 39.0641C40.3455 39.3248 40.4176 39.616 40.4509 39.9378C40.4841 40.2596 40.5008 40.5869 40.5008 40.9198V46.5035H39.4107V44.2484L39.7269 44.3815C39.4218 45.1526 38.9474 45.7407 38.3039 46.1457C37.6604 46.5506 36.8893 46.7531 35.9905 46.7531ZM36.132 45.6963C36.7034 45.6963 37.2027 45.5937 37.6299 45.3884C38.0571 45.1831 38.401 44.903 38.6617 44.5479C38.9225 44.1873 39.0917 43.7824 39.1694 43.333C39.2359 43.0445 39.272 42.7283 39.2775 42.3843C39.2831 42.0348 39.2859 41.7741 39.2859 41.6021L39.7519 41.8434C39.3358 41.8989 38.8836 41.9544 38.3955 42.0099C37.9128 42.0653 37.4357 42.1291 36.9642 42.2013C36.4982 42.2734 36.0765 42.3594 35.6993 42.4592C35.4441 42.5314 35.1972 42.634 34.9587 42.7671C34.7201 42.8947 34.5232 43.0667 34.3679 43.2831C34.2181 43.4994 34.1432 43.7685 34.1432 44.0903C34.1432 44.351 34.207 44.6034 34.3346 44.8475C34.4677 45.0916 34.6785 45.2941 34.967 45.455C35.261 45.6159 35.6494 45.6963 36.132 45.6963Z" fill="#62764F"/>
<path d="M30.0284 46.5029V41.9178C30.0284 41.4185 29.9812 40.9608 29.8869 40.5447C29.7926 40.1231 29.64 39.757 29.4292 39.4463C29.224 39.1301 28.9549 38.886 28.622 38.714C28.2947 38.542 27.8953 38.456 27.4237 38.456C26.991 38.456 26.6082 38.5309 26.2754 38.6807C25.9481 38.8305 25.6707 39.0469 25.4432 39.3298C25.2213 39.6072 25.0521 39.9456 24.9356 40.345C24.8191 40.7444 24.7609 41.1994 24.7609 41.7097L23.8954 41.5184C23.8954 40.5974 24.0563 39.8235 24.3781 39.1966C24.6999 38.5698 25.1437 38.0954 25.7095 37.7737C26.2754 37.4519 26.9245 37.291 27.6568 37.291C28.1949 37.291 28.6636 37.3742 29.0631 37.5407C29.4681 37.7071 29.8092 37.9318 30.0866 38.2147C30.3696 38.4976 30.597 38.8222 30.769 39.1883C30.941 39.5489 31.0658 39.9345 31.1434 40.345C31.2211 40.75 31.26 41.155 31.26 41.56V46.5029H30.0284ZM23.5293 46.5029V37.5157H24.6361V39.7292H24.7609V46.5029H23.5293Z" fill="#62764F"/>
<path d="M16.8597 46.7531C16.1829 46.7531 15.6142 46.6311 15.1538 46.387C14.6989 46.1429 14.3577 45.8184 14.1302 45.4134C13.9028 45.0084 13.7891 44.5674 13.7891 44.0903C13.7891 43.6021 13.8861 43.186 14.0803 42.842C14.28 42.4925 14.5491 42.2068 14.8875 41.9849C15.2315 41.763 15.6281 41.5938 16.0775 41.4773C16.5324 41.3663 17.0344 41.2693 17.5837 41.186C18.1384 41.0973 18.6793 41.0224 19.2063 40.9614C19.7389 40.8948 20.2049 40.831 20.6044 40.77L20.1716 41.0363C20.1883 40.1486 20.0163 39.4912 19.6557 39.0641C19.2951 38.6369 18.6682 38.4233 17.7751 38.4233C17.1593 38.4233 16.6378 38.562 16.2106 38.8394C15.789 39.1168 15.4922 39.555 15.3202 40.1542L14.1302 39.8047C14.3355 39.0003 14.7488 38.3761 15.3701 37.9323C15.9915 37.4885 16.7987 37.2666 17.7917 37.2666C18.6127 37.2666 19.309 37.4219 19.8804 37.7326C20.4573 38.0377 20.8651 38.4815 21.1036 39.0641C21.2146 39.3248 21.2867 39.616 21.32 39.9378C21.3533 40.2596 21.3699 40.5869 21.3699 40.9198V46.5035H20.2798V44.2484L20.596 44.3815C20.2909 45.1526 19.8166 45.7407 19.1731 46.1457C18.5295 46.5506 17.7584 46.7531 16.8597 46.7531ZM17.0012 45.6963C17.5726 45.6963 18.0719 45.5937 18.499 45.3884C18.9262 45.1831 19.2701 44.903 19.5309 44.5479C19.7916 44.1873 19.9608 43.7824 20.0385 43.333C20.1051 43.0445 20.1411 42.7283 20.1467 42.3843C20.1522 42.0348 20.155 41.7741 20.155 41.6021L20.621 41.8434C20.2049 41.8989 19.7528 41.9544 19.2646 42.0099C18.782 42.0653 18.3049 42.1291 17.8333 42.2013C17.3673 42.2734 16.9457 42.3594 16.5684 42.4592C16.3132 42.5314 16.0664 42.634 15.8278 42.7671C15.5893 42.8947 15.3923 43.0667 15.237 43.2831C15.0872 43.4994 15.0123 43.7685 15.0123 44.0903C15.0123 44.351 15.0761 44.6034 15.2037 44.8475C15.3369 45.0916 15.5477 45.2941 15.8361 45.455C16.1302 45.6159 16.5185 45.6963 17.0012 45.6963Z" fill="#62764F"/>
<path d="M0.294922 46.5035V34.5205H1.41832L6.12828 44.5979L10.8133 34.5205H11.9533V46.4952H10.7883V37.25L6.51939 46.5035H5.72885L1.46825 37.25V46.5035H0.294922Z" fill="#62764F"/>
</svg>
